<svg width="20" height="20" viewBox="0 0 20 20" fill="none" xmlns="http://www.w3.org/2000/svg">
<path d="M9.375 1.25V10H10.625V1.25H9.375Z" fill="black"/>
<path d="M3.75045 11.0149C3.75015 9.89857 4.04888 8.80258 4.6156 7.84084C5.18231 6.8791 5.9963 6.08673 6.97295 5.54611L6.3667 4.45361C4.91736 5.2562 3.77455 6.51608 3.11667 8.03659C2.45879 9.55709 2.32288 11.2526 2.73016 12.8585C3.13743 14.4644 4.06496 15.8902 5.36795 16.9134C6.67094 17.9367 8.27606 18.4996 9.93271 18.5145C11.5894 18.5294 13.2043 17.9953 14.5255 16.9956C15.8466 15.996 16.7996 14.587 17.2356 12.9887C17.6716 11.3903 17.5662 9.69264 16.9357 8.16058C16.3052 6.62851 15.1852 5.34832 13.7505 4.51986L13.1242 5.60111C14.0745 6.14947 14.8637 6.93832 15.4125 7.88836C15.9612 8.8384 16.2502 9.91617 16.2505 11.0133C16.2507 12.1105 15.962 13.1883 15.4136 14.1386C14.8652 15.0888 14.0763 15.878 13.1262 16.4267C12.1762 16.9754 11.0984 17.2644 10.0012 17.2645C8.90407 17.2646 7.82622 16.9759 6.876 16.4275C5.92579 15.879 5.1367 15.09 4.58804 14.1399C4.03939 13.1898 3.75052 12.112 3.75045 11.0149V11.0149Z" fill="black"/>
</svg>
